ffmpeg started on 2025-02-06 at 23:03:41
Report written to "videos/dist/libx264_default-crf-13-33/b3320ba16c30.log"
Log level: 40
Command line:
ffmpeg -progress - -nostats -y -threads 4 -i videos/dist/libx264_default-crf-13-33/base.mkv -crf 32 -c:v libx264 -preset:v medium videos/dist/libx264_default-crf-13-33/b3320ba16c30.mkv
ffmpeg version 7.1 Copyright (c) 2000-2024 the FFmpeg developers
  built with gcc 13 (Ubuntu 13.3.0-6ubuntu2~24.04)
  configuration: --enable-avisynth --enable-libaom --enable-libaribb24 --enable-libass --enable-libdav1d --enable-libfreetype --enable-libmp3lame --enable-libopus --enable-libsvtav1 --enable-libvmaf --enable-libvpl --enable-libvpx --enable-libx264 --enable-libx265 --enable-vaapi --enable-gpl --enable-nonfree --enable-version3 --disable-debug --disable-doc --disable-ffplay --disable-shared --enable-small --enable-static --enable-stripping --extra-libs='-lpthread -lm' --pkg-config-flags=--static --extra-cflags=-fopenmp --extra-ldflags='-fopenmp -Wl,--allow-multiple-definition -Wl,-z,stack-size=2097152' --toolchain=hardened
  libavutil      59. 39.100 / 59. 39.100
  libavcodec     61. 19.100 / 61. 19.100
  libavformat    61.  7.100 / 61.  7.100
  libavdevice    61.  3.100 / 61.  3.100
  libavfilter    10.  4.100 / 10.  4.100
  libswscale      8.  3.100 /  8.  3.100
  libswresample   5.  3.100 /  5.  3.100
  libpostproc    58.  3.100 / 58.  3.100
Input #0, matroska,webm, from 'videos/dist/libx264_default-crf-13-33/base.mkv':
  Metadata:
    ENCODER         : Lavf61.7.100
  Duration: 00:02:00.02, start: 0.000000, bitrate: 17503 kb/s
  Stream #0:0: Video: mpeg2video, yuv420p(tv, bt709/unknown/unknown, progressive), 1920x1080 [SAR 1:1 DAR 16:9], 29.97 fps, 29.97 tbr, 1k tbn
      Metadata:
        DURATION        : 00:02:00.020000000
      Side data:
        cpb: bitrate max/min/avg: 24000000/0/0 buffer size: 9781248 vbv_delay: N/A
[out#0/matroska @ 0x5af93c979980] No explicit maps, mapping streams automatically...
[vost#0:0/libx264 @ 0x5af93c975580] Created video stream from input stream 0:0
Stream mapping:
  Stream #0:0 -> #0:0 (mpeg2video (native) -> h264 (libx264))
[vost#0:0/libx264 @ 0x5af93c975580] Starting thread...
[vf#0:0 @ 0x5af93c977a40] Starting thread...
[vist#0:0/mpeg2video @ 0x5af93c97a640] [dec:mpeg2video @ 0x5af93c978dc0] Starting thread...
[in#0/matroska,webm @ 0x5af93c968e40] Starting thread...
Press [q] to stop, [?] for help
[graph -1 input from stream 0:0 @ 0x7547c4003140] w:1920 h:1080 pixfmt:yuv420p tb:1/1000 fr:30000/1001 sar:1/1 csp:bt709 range:tv
[graph -1 input from stream 0:0 @ 0x7547c4003140] video frame properties congruent with link at pts_time: 0
[libx264 @ 0x5af93c9740c0] using SAR=1/1
[libx264 @ 0x5af93c9740c0] using cpu capabilities: MMX2 SSE2Fast SSSE3 SSE4.2 AVX FMA3 BMI2 AVX2
[libx264 @ 0x5af93c9740c0] profile High, level 4.0, 4:2:0, 8-bit
[libx264 @ 0x5af93c9740c0] 264 - core 164 r3108 31e19f9 - H.264/MPEG-4 AVC codec - Copyleft 2003-2023 - http://www.videolan.org/x264.html - options: cabac=1 ref=3 deblock=1:0:0 analyse=0x3:0x113 me=hex subme=7 psy=1 psy_rd=1.00:0.00 mixed_ref=1 me_range=16 chroma_me=1 trellis=1 8x8dct=1 cqm=0 deadzone=21,11 fast_pskip=1 chroma_qp_offset=-2 threads=34 lookahead_threads=5 sliced_threads=0 nr=0 decimate=1 interlaced=0 bluray_compat=0 constrained_intra=0 bframes=3 b_pyramid=2 b_adapt=1 b_bias=0 direct=1 weightb=1 open_gop=0 weightp=2 keyint=250 keyint_min=25 scenecut=40 intra_refresh=0 rc_lookahead=40 rc=crf mbtree=1 crf=32.0 qcomp=0.60 qpmin=0 qpmax=69 qpstep=4 ip_ratio=1.40 aq=1:1.00
Output #0, matroska, to 'videos/dist/libx264_default-crf-13-33/b3320ba16c30.mkv':
  Metadata:
    encoder         : Lavf61.7.100
  Stream #0:0: Video: h264 (H264 / 0x34363248), yuv420p(tv, bt709/unknown/unknown, progressive), 1920x1080 [SAR 1:1 DAR 16:9], q=2-31, 29.97 fps, 1k tbn
      Metadata:
        DURATION        : 00:02:00.020000000
        encoder         : Lavc61.19.100 libx264
      Side data:
        cpb: bitrate max/min/avg: 0/0/0 buffer size: 0 vbv_delay: N/A
[out#0/matroska @ 0x5af93c979980] Starting thread...
[in#0/matroska,webm @ 0x5af93c968e40] EOF while reading input
[in#0/matroska,webm @ 0x5af93c968e40] Terminating thread with return code 0 (success)
[vist#0:0/mpeg2video @ 0x5af93c97a640] [dec:mpeg2video @ 0x5af93c978dc0] Decoder thread received EOF packet
[vist#0:0/mpeg2video @ 0x5af93c97a640] [dec:mpeg2video @ 0x5af93c978dc0] Decoder returned EOF, finishing
[vist#0:0/mpeg2video @ 0x5af93c97a640] [dec:mpeg2video @ 0x5af93c978dc0] Terminating thread with return code 0 (success)
[vf#0:0 @ 0x5af93c977a40] Filtergraph returned EOF, finishing
[vf#0:0 @ 0x5af93c977a40] All consumers returned EOF
[vf#0:0 @ 0x5af93c977a40] Terminating thread with return code 0 (success)
[vost#0:0/libx264 @ 0x5af93c975580] Encoder thread received EOF
[vost#0:0/libx264 @ 0x5af93c975580] Terminating thread with return code 0 (success)
[out#0/matroska @ 0x5af93c979980] All streams finished
[out#0/matroska @ 0x5af93c979980] Terminating thread with return code 0 (success)
[AVIOContext @ 0x5af93c985300] Statistics: 24152558 bytes written, 2 seeks, 94 writeouts
[out#0/matroska @ 0x5af93c979980] Output file #0 (videos/dist/libx264_default-crf-13-33/b3320ba16c30.mkv):
[out#0/matroska @ 0x5af93c979980]   Output stream #0:0 (video): 3597 frames encoded; 3597 packets muxed (24124857 bytes); 
[out#0/matroska @ 0x5af93c979980]   Total: 3597 packets (24124857 bytes) muxed
[out#0/matroska @ 0x5af93c979980] video:23559KiB audio:0KiB subtitle:0KiB other streams:0KiB global headers:0KiB muxing overhead: 0.112506%
frame= 3597 fps= 99 q=-1.0 Lsize=   23586KiB time=00:01:59.95 bitrate=1610.8kbits/s speed=3.29x    
[AVIOContext @ 0x5af93c968d00] Statistics: 14871 bytes written, 0 seeks, 73 writeouts
[libx264 @ 0x5af93c9740c0] frame I:32    Avg QP:28.06  size: 77258
[libx264 @ 0x5af93c9740c0] frame P:2596  Avg QP:31.85  size:  7561
[libx264 @ 0x5af93c9740c0] frame B:969   Avg QP:37.29  size:  2089
[libx264 @ 0x5af93c9740c0] consecutive B-frames: 58.4% 14.0%  9.3% 18.3%
[libx264 @ 0x5af93c9740c0] mb I  I16..4: 22.9% 68.7%  8.4%
[libx264 @ 0x5af93c9740c0] mb P  I16..4:  3.0%  3.8%  0.2%  P16..4: 20.1%  2.0%  1.4%  0.0%  0.0%    skip:69.5%
[libx264 @ 0x5af93c9740c0] mb B  I16..4:  0.6%  0.7%  0.0%  B16..8: 16.0%  0.4%  0.1%  direct: 0.2%  skip:82.0%  L0:36.5% L1:63.0% BI: 0.6%
[libx264 @ 0x5af93c9740c0] 8x8 transform intra:56.1% inter:84.6%
[libx264 @ 0x5af93c9740c0] coded y,uvDC,uvAC intra: 22.8% 30.1% 4.9% inter: 3.5% 3.5% 0.1%
[libx264 @ 0x5af93c9740c0] i16 v,h,dc,p: 35% 28% 13% 24%
[libx264 @ 0x5af93c9740c0] i8 v,h,dc,ddl,ddr,vr,hd,vl,hu: 22% 11% 50%  2%  2%  5%  2%  2%  3%
[libx264 @ 0x5af93c9740c0] i4 v,h,dc,ddl,ddr,vr,hd,vl,hu: 42% 18% 16%  3%  5%  6%  4%  4%  3%
[libx264 @ 0x5af93c9740c0] i8c dc,h,v,p: 71% 15% 13%  2%
[libx264 @ 0x5af93c9740c0] Weighted P-Frames: Y:1.3% UV:0.4%
[libx264 @ 0x5af93c9740c0] ref P L0: 66.5% 14.2% 13.9%  5.3%  0.1%
[libx264 @ 0x5af93c9740c0] ref B L0: 83.7% 14.3%  2.0%
[libx264 @ 0x5af93c9740c0] ref B L1: 98.6%  1.4%
[libx264 @ 0x5af93c9740c0] kb/s:1608.01
[in#0/matroska,webm @ 0x5af93c968e40] Input file #0 (videos/dist/libx264_default-crf-13-33/base.mkv):
[in#0/matroska,webm @ 0x5af93c968e40]   Input stream #0:0 (video): 3597 packets read (262560438 bytes); 3597 frames decoded; 0 decode errors; 
[in#0/matroska,webm @ 0x5af93c968e40]   Total: 3597 packets (262560438 bytes) demuxed
[AVIOContext @ 0x5af93c97a940] Statistics: 262601028 bytes read, 0 seeks
